<svg width="403" height="430" viewBox="0 0 403 430" fill="none" xmlns="http://www.w3.org/2000/svg">
<path d="M236.432 248.901L224.59 233.542L238.603 215.032L89.2047 18.707L37.8922 19.1008L163.41 184.116L151.569 199.475L0 0.393831L98.4804 0L262.285 215.032L236.432 248.901Z" fill="white"/>
<path d="M403 399.936H304.323L163.411 215.032L189.067 181.359L200.908 196.719L187.093 215.032L313.598 381.229H365.108L262.286 246.145L274.127 230.588L403 399.936Z" fill="white"/>
<path d="M273.929 199.674L262.088 184.118L365.108 48.8368L313.795 48.6399L236.432 150.248L224.59 134.692L304.519 29.9329L403 30.3267L273.929 199.674Z" fill="white"/>
<path d="M273.929 199.674L262.088 184.118L365.108 48.8368L313.795 48.6399L236.432 150.248L224.59 134.692L304.519 29.9329L403 30.3267L273.929 199.674Z" fill="white"/>
<path d="M98.6777 429.869L0 429.672L151.766 230.394L163.41 245.95L37.8922 410.965L89.402 411.162L189.264 279.819L201.105 295.179L98.6777 429.869Z" fill="white"/>
<path d="M258.733 148.674L311.032 80.147H320.11L263.469 154.778L258.733 148.674Z" fill="white"/>
<path d="M263.272 275.484L320.308 350.312H311.23L258.93 281.392L263.272 275.484Z" fill="white"/>
</svg>
