<svg width="22" height="15" viewBox="0 0 22 15" fill="none" xmlns="http://www.w3.org/2000/svg">
<path d="M20.8 2.64996C20.95 3.29998 21.1 4.34998 21.15 5.69998L21.2 7.54997V9.49997C21.15 10.9 21 11.95 20.85 12.6C20.75 13 20.5 13.4 20.2 13.7C19.9 14 19.5 14.25 19.05 14.35C18.4 14.5 16.9 14.65 14.5 14.75L11 14.8L7.59999 14.75C5.19999 14.65 3.69998 14.55 3.04999 14.35C2.59999 14.25 2.19998 14 1.89998 13.7C1.5 13.4 1.29998 13 1.14998 12.6C0.999984 11.9 0.849984 10.9 0.799992 9.49997L0.75 7.64998C0.75 7.09997 0.75 6.49997 0.799992 5.79996C0.849984 4.44996 0.999984 3.39996 1.14998 2.74997C1.29998 2.19996 1.5 1.79998 1.84999 1.49998C2.19998 1.19998 2.55 0.949971 3 0.799971C3.64999 0.649971 5.14999 0.499971 7.54999 0.449979L11 0.399963L14.4 0.449979C16.8 0.499971 18.35 0.649971 19 0.799971C19.45 0.899979 19.85 1.14996 20.15 1.44996C20.45 1.79998 20.7 2.19996 20.8 2.64996ZM8.89999 10.7L14.25 7.64998L8.89999 4.59996V10.7Z" fill="#CCCCCC"/>
</svg>
